<?xml version="1.0" encoding="UTF-8"?>
<svg id="IconMainMenu" xmlns="http://www.w3.org/2000/svg" viewBox="0 0 245.69 302.82">
  <defs>
    <style>
      .cls-1 {
        fill: #174a44;
        fill-rule: evenodd;
      }
    </style>
  </defs>
  <path class="cls-1" d="M133.71,298.37c-5.98,5.93-15.71,5.94-21.72.04l-.04-.04-.09-.1-.26-.26-.95-.96c-5.41-5.5-10.73-11.08-15.97-16.75-13.14-14.19-25.72-28.89-37.72-44.03-13.69-17.41-27.7-37.1-38.34-56.54C8.21,160.67,0,140.02,0,121.12,0,52.4,55.15,0,122.84,0s122.84,52.4,122.84,121.12c0,18.9-8.21,39.55-18.62,58.59-10.64,19.47-24.63,39.14-38.34,56.55-16.78,21.19-34.69,41.47-53.68,60.77l-.95.96-.26.26-.09.09M122.84,166.55c25.44,0,46.07-20.34,46.07-45.42s-20.63-45.42-46.07-45.42-46.07,20.34-46.07,45.42,20.63,45.42,46.07,45.42Z"/>
</svg>