<?xml version="1.0" encoding="UTF-8"?>
<svg id="IconProfile" xmlns="http://www.w3.org/2000/svg" viewBox="0 0 425.67 220.02">
  <defs>
    <style>
      .cls-1, .cls-2 {
        fill: #27e38e;
      }

      .cls-1, .cls-3 {
        fill-rule: evenodd;
      }

      .cls-3, .cls-4 {
        fill: #174a44;
      }
    </style>
  </defs>
  <g>
    <circle class="cls-2" cx="112.83" cy="63.47" r="63.47"/>
    <path class="cls-1" d="M49.6,119.7C19.67,134.29,0,158.93,0,186.88h225.67c0-27.95-19.67-52.59-49.6-67.17-15.5,17.42-38.09,28.39-63.24,28.39s-47.74-10.97-63.24-28.39Z"/>
  </g>
  <g>
    <circle class="cls-2" cx="312.83" cy="63.47" r="63.47"/>
    <path class="cls-1" d="M249.6,119.7c-29.93,14.58-49.6,39.23-49.6,67.17h225.67c0-27.95-19.67-52.59-49.6-67.17-15.5,17.42-38.09,28.39-63.24,28.39s-47.74-10.97-63.24-28.39Z"/>
  </g>
  <g>
    <circle class="cls-4" cx="212.83" cy="96.61" r="63.47"/>
    <path class="cls-3" d="M149.6,152.85c-29.93,14.58-49.6,39.23-49.6,67.17h225.67c0-27.95-19.67-52.59-49.6-67.17-15.5,17.42-38.09,28.39-63.24,28.39s-47.74-10.97-63.24-28.39Z"/>
  </g>
</svg>