<?xml version="1.0" encoding="UTF-8"?>
<svg id="Inverse" xmlns="http://www.w3.org/2000/svg" viewBox="0 0 297.51 327.05">
  <defs>
    <style>
      .cls-1 {
        fill: #174a44;
      }
    </style>
  </defs>
  <path class="cls-1" d="M0,90.91s4.9,5.16,25.77,12.56c20.87,7.4,48.36,23.42,51.03,33.1s-9.89,16.17-9.89,16.17c0,0-11.53,10.5-10.71,12.46s27.5,4.84,27.5,4.84c0,0,1.64,1,4,7.37,2.36,6.37,7.88,23.7,16,30.73,8.12,7.03,16.38,20.06,16.38,20.06,0,0,5.67,11.23,11.87,50.11,0,0,4.15,21.37.58,21.76s-20.94-1.23-27.49,3.74-7.08,7.96-7.08,7.96c0,0-.26,2.33,6.03-1.58s43.08-3.18,64.19,16.87c0,0,3.27.53-.66-6.17s-11.33-10.85-16.46-12.51c0,0,16.52,1.65,32.92,10.54,0,0,5.53-.17-3.99-8.03-9.51-7.86-18.8-8.89-32.35-10.77,0,0-5.4.25-7.56-19.2s-2.26-26.04-1.87-37.04,14.44-11.2,14.44-11.2c0,0,8.26-3.02,14.35,6.12s27.92,45.05,27.92,45.05c0,0,2.86,4.51-6.41,3.87s-18.97,1.94-20.31,12.37c0,0-.76,2.89,2.6-.35s12.95-4,12.95-4c0,0,37.22.07,57.01,14.53,0,0,2.99.57-1.05-4.61-4.04-5.17-22.86-11.96-22.86-11.96,0,0,27.39,3.47,32.56,7.59,0,0,2.75-.16-1.78-4.52s-16.08-10.18-40.07-10.75c0,0-9.84-7.37-21.59-31.87,0,0-7.12-13.8-8.13-18.66s19.9-10.03,19.9-10.03c0,0,28.67-6.11,42.09-25.56,13.41-19.45,13.86-29.96,13.86-29.96,0,0,4.95-22.99,12.56-29.99s10-7.44,10-7.44l20.45-.18s3.1-1.15-3.1-5.93c-6.2-4.78-14.16-9.56-14.16-9.56,0,0-5.7-25.47-29.73-34.46-24.03-8.99-57.22,2.59-72.78,11.93-15.56,9.34-71.75,20.92-79.7,17.29,0,0-15.23-.92-61.19-29.56,0,0-8.86-4.82-36.07,8.85Z"/>
  <g>
    <path class="cls-1" d="M200.9,40h60.65v61.76c0,4.37-3.55,7.91-7.91,7.91h-44.83c-4.37,0-7.91-3.55-7.91-7.91v-61.76h0Z"/>
    <circle class="cls-1" cx="231.22" cy="25.17" r="25.17"/>
    <circle class="cls-1" cx="261.55" cy="25.17" r="25.17"/>
    <circle class="cls-1" cx="206.06" cy="25.17" r="25.17"/>
  </g>
</svg>